<?xml version="1.0" standalone="no"?>
<!DOCTYPE svg PUBLIC "-//W3C//DTD SVG 20010904//EN"
 "http://www.w3.org/TR/2001/REC-SVG-20010904/DTD/svg10.dtd">
<svg version="1.0" xmlns="http://www.w3.org/2000/svg"
 width="1000.000000pt" height="1000.000000pt" viewBox="0 0 1000.000000 1000.000000"
 preserveAspectRatio="xMidYMid meet">
<metadata>
Created by potrace 1.11, written by Peter Selinger 2001-2013
</metadata>
<g transform="translate(0.000000,1000.000000) scale(0.100000,-0.100000)"
fill="#000000" stroke="none">
<path d="M0 5000 l0 -5000 5000 0 5000 0 0 5000 0 5000 -5000 0 -5000 0 0
-5000z m5635 3629 c219 -22 540 -102 779 -196 116 -45 352 -158 470 -225 482
-273 923 -660 1263 -1109 318 -420 524 -876 588 -1304 22 -146 22 -390 1 -515
-59 -339 -323 -928 -639 -1425 -603 -949 -1511 -1794 -2378 -2213 -398 -193
-730 -274 -1124 -274 -557 -1 -1085 189 -1586 569 -161 122 -232 185 -399 352
-459 462 -836 1054 -1092 1721 -139 361 -235 740 -268 1060 -17 161 -15 459 5
605 72 534 281 986 662 1432 584 683 1568 1215 2665 1442 461 95 711 114 1053
80z"/>
<path d="M4990 7794 c-770 -108 -1487 -400 -2015 -821 -142 -113 -349 -322
-448 -450 -236 -310 -371 -625 -422 -991 -23 -163 -17 -453 14 -627 129 -734
514 -1478 1036 -2000 230 -230 429 -376 680 -500 277 -136 498 -193 786 -202
263 -8 423 14 659 93 713 238 1550 952 2095 1789 192 294 341 592 451 903 62
173 78 279 72 471 -8 252 -68 472 -204 744 -140 281 -323 527 -575 773 -439
427 -948 702 -1490 805 -151 28 -483 35 -639 13z m236 -646 c-250 -149 -458
-388 -612 -704 -70 -142 -150 -374 -182 -524 -156 -727 130 -1407 753 -1790
498 -306 1062 -341 1525 -94 57 30 61 31 35 9 -71 -61 -260 -179 -375 -233
-133 -63 -234 -100 -342 -126 -38 -9 -96 -23 -131 -31 -35 -8 -80 -15 -100
-15 -19 0 -39 -4 -42 -10 -8 -13 -398 -13 -411 0 -5 5 -35 11 -66 14 -47 5
-144 26 -293 65 -43 11 -194 75 -276 117 -261 131 -511 356 -671 604 -27 41
-75 129 -107 195 -78 159 -111 256 -140 415 -7 36 -17 87 -22 113 -12 62 -12
392 0 454 5 26 15 77 21 113 24 131 94 341 145 435 12 22 40 75 63 118 24 43
57 97 75 121 103 137 129 169 202 245 252 263 554 439 910 532 61 15 114 28
119 29 5 0 -30 -24 -78 -52z m-466 -1523 c0 -8 -12 -18 -27 -21 -45 -11 -53
-23 -53 -78 1 -66 30 -133 62 -138 29 -4 36 -34 8 -41 -25 -7 -25 -17 3 -97
18 -52 27 -66 45 -68 30 -5 39 -29 17 -46 -22 -16 -12 -36 20 -36 28 0 43 -30
20 -42 -8 -5 -15 -15 -15 -23 0 -25 21 -27 45 -5 23 22 23 22 34 2 6 -12 11
-23 11 -26 0 -11 -59 -36 -85 -36 -32 0 -67 35 -63 63 2 14 -6 29 -19 40 -13
10 -23 29 -23 43 0 13 -9 33 -20 44 -11 11 -20 27 -20 36 0 8 -10 38 -22 66
-17 40 -19 56 -11 77 8 22 6 32 -8 50 -20 24 -49 111 -49 144 0 31 29 84 53
95 34 17 97 15 97 -3z m-192 -154 c20 -12 10 -46 -14 -49 -25 -4 -40 24 -23
44 13 16 19 17 37 5z m379 -297 c3 -8 -2 -23 -11 -32 -15 -15 -17 -15 -33 0
-13 14 -14 20 -3 32 16 20 39 20 47 0z m66 -8 c7 -19 -18 -40 -38 -32 -15 6
-20 28 -8 39 12 12 41 7 46 -7z m-42 -52 c11 -14 10 -18 -6 -30 -16 -12 -21
-12 -33 0 -17 17 -9 46 11 46 8 0 21 -7 28 -16z m9 -204 c12 -7 12 -12 0 -37
-8 -15 -15 -31 -17 -34 -6 -15 99 -139 143 -168 26 -17 49 -29 51 -27 7 7 -18
49 -49 82 -26 28 -27 32 -12 44 29 25 65 -6 110 -98 41 -82 41 -83 21 -97 -18
-12 -23 -12 -36 -1 -9 7 -34 19 -56 26 -73 22 -123 59 -174 127 -51 67 -51 67
-96 64 -39 -2 -49 2 -75 27 -18 18 -30 41 -30 56 0 14 2 26 4 26 2 0 11 2 19
6 9 3 19 -6 27 -26 23 -55 85 -54 115 3 21 38 30 43 55 27z m-290 -153 c28
-22 33 -38 14 -44 -14 -5 -85 57 -78 68 8 13 28 5 64 -24z m732 -1 c21 -18 35
-36 31 -39 -12 -13 -40 -7 -58 13 -10 11 -24 20 -31 20 -16 0 -27 17 -19 30
11 18 40 10 77 -24z m-145 8 c3 -8 -1 -22 -9 -30 -12 -12 -17 -12 -33 -1 -23
17 -14 47 15 47 11 0 23 -7 27 -16z m112 -71 c3 -2 -132 -186 -161 -218 -5 -5
-14 -3 -25 7 -15 16 -10 25 67 128 72 96 85 109 99 98 9 -7 18 -13 20 -15z
m41 -168 c13 -63 3 -95 -42 -129 -34 -24 -70 -15 -101 25 -26 35 -13 76 34
106 19 13 39 27 44 31 11 9 35 20 47 21 4 1 12 -24 18 -54z m513 -57 c7 -21
-4 -38 -23 -38 -23 0 -34 16 -26 35 7 18 43 20 49 3z m62 -23 c0 -21 -31 -33
-46 -18 -5 5 -7 17 -3 27 9 24 49 17 49 -9z m533 -108 c30 -108 33 -130 21
-138 -8 -5 -18 -7 -23 -6 -16 5 -85 261 -72 269 28 19 40 -1 74 -125z m-1012
115 c22 -14 36 -55 30 -86 -6 -32 -5 -33 60 -59 l67 -26 21 27 c32 41 64 72
75 72 20 0 43 -62 38 -100 -5 -37 -4 -38 32 -44 20 -3 50 -6 66 -5 l30 0 -31
13 c-49 22 -59 73 -22 113 40 43 98 23 113 -39 10 -40 -13 -126 -37 -139 -12
-6 -51 -9 -89 -7 -66 3 -69 3 -69 -19 0 -25 -26 -43 -65 -43 -35 0 -75 42 -75
78 0 31 4 29 -135 81 -13 5 -35 0 -66 -17 -57 -29 -94 -24 -134 18 -23 24 -26
32 -16 44 11 13 16 12 44 -5 31 -18 87 -26 100 -13 3 3 -6 16 -20 28 -36 32
-36 81 1 113 27 23 61 29 82 15z m1150 -159 c19 -45 17 -92 -6 -130 -30 -50
-95 -59 -111 -15 -7 20 -5 22 21 22 29 0 70 38 70 65 0 7 -15 35 -34 63 -32
46 -33 50 -18 66 16 16 18 15 40 -11 13 -15 30 -42 38 -60z m-245 46 c16 -11
36 -33 44 -49 30 -59 12 -101 -50 -115 -16 -4 -37 -9 -46 -11 -21 -6 -49 21
-49 47 0 15 7 19 39 19 84 0 94 26 27 69 -42 26 -44 29 -28 44 21 22 28 21 63
-4z m-127 -59 c34 -86 15 -122 -72 -136 -33 -5 -46 -13 -57 -35 -21 -39 -53
-59 -98 -59 -51 0 -77 14 -70 40 5 17 11 19 44 14 27 -5 46 -2 64 10 30 20 33
36 6 36 -28 0 -60 31 -67 66 -11 59 66 112 110 74 8 -6 20 -27 26 -46 10 -28
16 -34 41 -34 37 0 45 19 24 60 -14 27 -15 34 -3 41 24 16 36 9 52 -31z
m-1069 8 c44 -12 63 -38 28 -38 -37 0 -93 21 -93 35 0 18 7 18 65 3z m1030
-218 c0 -29 -32 -41 -41 -16 -9 24 4 48 23 44 12 -2 18 -12 18 -28z m70 5 c0
-23 -34 -33 -45 -14 -13 20 1 40 24 37 13 -2 21 -10 21 -23z"/>
<path d="M4646 6712 c-9 -15 2 -47 15 -44 25 6 33 21 19 37 -14 17 -26 19 -34
7z"/>
<path d="M4004 6228 c-4 -6 -8 -26 -9 -44 -1 -25 2 -34 14 -34 26 0 39 14 43
44 2 22 -2 30 -19 37 -14 5 -25 4 -29 -3z"/>
<path d="M4855 4040 c3 -5 10 -10 16 -10 5 0 9 5 9 10 0 6 -7 10 -16 10 -8 0
-12 -4 -9 -10z"/>
<path d="M5339 4494 c-16 -20 0 -49 27 -49 14 0 20 8 22 33 3 26 0 32 -16 32
-11 0 -25 -7 -33 -16z"/>
<path d="M5467 4413 c-11 -10 -8 -20 9 -37 21 -21 34 -20 34 2 0 28 -28 51
-43 35z"/>
<path d="M5915 4321 c-9 -15 1 -28 25 -34 17 -4 21 -1 18 16 -3 23 -32 35 -43
18z"/>
<path d="M5747 4300 c-18 -25 -14 -40 9 -40 19 0 28 24 16 46 -8 15 -11 14
-25 -6z"/>
<path d="M5710 4195 c0 -20 42 -47 54 -35 12 12 -7 36 -34 43 -13 3 -20 0 -20
-8z"/>
<path d="M6102 4248 c-15 -15 3 -38 29 -38 23 0 24 13 3 34 -19 19 -17 19 -32
4z"/>
<path d="M2651 2944 c-28 -20 -50 -70 -46 -105 6 -53 56 -118 111 -144 23 -11
40 -29 52 -56 12 -28 26 -43 49 -51 18 -7 35 -20 39 -30 3 -10 10 -18 15 -18
6 0 30 -20 56 -45 25 -25 52 -45 60 -45 8 0 28 10 45 21 l30 22 -7 -34 c-4
-19 -13 -37 -19 -42 -17 -12 -67 1 -82 21 -10 13 -17 15 -30 6 -38 -23 -39
-40 -7 -73 26 -26 39 -31 77 -31 26 0 55 5 65 12 15 9 24 7 49 -10 16 -12 35
-22 40 -22 6 0 20 -14 32 -30 12 -17 37 -37 56 -45 46 -19 92 0 118 48 16 31
16 40 6 73 -45 138 -61 157 -103 124 -14 -11 -30 -20 -36 -20 -6 0 -25 -13
-42 -30 -18 -16 -35 -27 -40 -24 -5 3 -9 25 -9 49 0 35 -4 45 -20 50 -12 4
-20 15 -20 30 0 15 -7 25 -22 29 -35 9 -38 8 -48 -19 -5 -14 -14 -25 -20 -25
-13 0 -13 6 1 32 15 27 -9 48 -46 40 -27 -5 -30 0 -15 28 13 25 -12 40 -56 33
-33 -5 -56 13 -34 27 6 4 10 18 8 31 -3 21 -8 24 -45 24 -36 0 -48 6 -82 40
-54 55 -61 87 -26 119 23 21 26 28 15 41 -16 19 -40 19 -69 -1z m609 -544 c0
-13 -28 -25 -38 -16 -3 4 0 11 8 16 20 13 30 12 30 0z m30 -80 c0 -5 -7 -10
-16 -10 -8 0 -12 5 -9 10 3 6 10 10 16 10 5 0 9 -4 9 -10z"/>
<path d="M3045 2730 c-3 -5 -15 -10 -25 -10 -10 0 -25 -7 -33 -15 -19 -18 -11
-55 12 -55 9 0 21 -10 26 -22 14 -31 50 -35 65 -8 9 16 8 25 -1 36 -7 8 -7 14
-1 14 14 0 24 29 17 51 -7 20 -49 26 -60 9z"/>
<path d="M2597 2723 c-4 -3 -7 -21 -7 -40 0 -28 3 -33 24 -33 14 0 32 10 40
22 14 20 14 24 -1 40 -16 18 -44 24 -56 11z"/>
<path d="M6219 2623 c-13 -20 -32 -49 -41 -63 -35 -52 -12 -97 60 -120 23 -7
42 -17 42 -21 0 -15 -94 -89 -113 -89 -11 0 -36 5 -54 12 -43 16 -61 1 -43
-33 23 -43 47 -59 90 -59 62 0 163 72 176 127 4 12 9 23 13 24 75 8 128 35
152 80 13 24 -6 57 -60 106 -43 38 -52 40 -77 12 -19 -21 -19 -21 19 -53 36
-30 36 -32 17 -44 -23 -14 -92 -16 -105 -3 -6 5 -23 11 -38 13 l-29 3 21 25
c11 14 25 31 31 38 6 7 10 27 8 45 -5 48 -39 49 -69 0z"/>
<path d="M6513 2437 c-4 -6 -20 -18 -35 -26 -30 -15 -36 -39 -16 -59 18 -18
46 -14 60 8 7 11 20 20 30 20 24 0 30 14 18 44 -10 28 -43 35 -57 13z"/>
<path d="M5768 2329 c-27 -15 -22 -33 22 -91 40 -52 40 -53 20 -70 -21 -17
-27 -48 -10 -48 6 0 10 -7 10 -15 0 -8 -4 -15 -10 -15 -5 0 -10 5 -10 10 0 6
-9 10 -21 10 -14 0 -24 -10 -32 -30 -11 -29 -27 -41 -27 -19 0 6 -12 9 -27 7
-20 -2 -28 -9 -29 -23 -1 -11 -2 -26 -3 -32 -1 -18 -36 -16 -51 2 -21 26 -54
14 -60 -20 -9 -49 -36 -44 -63 13 -13 28 -30 71 -38 96 -14 47 -25 54 -60 36
-23 -13 -24 -21 -3 -68 9 -21 22 -52 30 -70 18 -43 17 -55 -2 -19 -8 15 -21
27 -29 27 -47 0 -60 -38 -26 -74 39 -42 31 -83 -16 -92 -30 -6 -39 -3 -54 15
-10 12 -16 28 -13 36 6 15 -26 28 -49 20 -23 -9 -26 -50 -7 -93 30 -67 92 -89
159 -56 41 20 81 74 81 108 0 26 0 26 25 10 31 -20 88 -12 108 16 11 15 21 19
44 14 23 -4 36 0 60 20 17 14 39 26 49 26 24 0 39 11 47 33 4 11 17 17 36 17
21 0 35 8 50 29 12 16 21 35 21 43 1 9 4 8 10 -4 8 -14 15 -14 40 -5 21 8 28
16 25 28 -4 12 1 17 20 17 30 0 89 44 113 84 15 25 14 28 -11 61 -32 42 -78
67 -124 67 -28 0 -35 -5 -47 -32 -7 -18 -11 -36 -9 -40 2 -5 26 -8 52 -8 26 0
51 -3 54 -7 9 -8 -22 -43 -38 -43 -7 0 -18 -7 -25 -15 -7 -8 -16 -15 -20 -15
-4 0 -33 38 -64 85 -58 86 -67 93 -98 74z"/>
<path d="M3390 2281 c-45 -24 -62 -72 -35 -101 38 -42 103 -9 89 45 -6 26 -5
27 19 22 32 -9 47 21 21 40 -25 18 -53 16 -94 -6z"/>
<path d="M3782 2258 c-18 -18 -14 -46 8 -53 11 -3 24 -4 29 0 6 3 15 -4 21
-15 19 -35 70 -19 70 22 0 13 -15 25 -46 38 -53 23 -66 24 -82 8z"/>
<path d="M3464 2178 c-50 -59 -56 -103 -22 -150 46 -66 153 -87 208 -42 23 20
34 24 43 15 6 -6 22 -11 36 -11 13 0 38 -10 55 -23 55 -40 84 -51 99 -38 11 9
17 8 27 -5 21 -24 65 -43 87 -38 11 3 25 -1 32 -10 8 -9 28 -16 45 -16 17 0
40 -7 50 -15 28 -21 60 -19 81 5 19 21 19 21 38 -10 10 -16 25 -30 33 -30 23
0 16 -19 -10 -26 -13 -3 -37 1 -54 10 -26 13 -32 14 -42 1 -6 -8 -10 -22 -8
-31 4 -21 45 -53 76 -59 30 -5 81 17 111 49 16 17 31 24 42 21 10 -3 27 0 38
7 17 10 25 10 41 0 32 -20 88 -15 100 8 11 20 12 20 39 -7 40 -40 107 -56 173
-41 29 7 59 18 67 26 11 11 17 10 37 -3 30 -19 91 -19 138 0 30 13 36 20 36
46 0 17 -7 52 -16 80 -15 44 -19 49 -45 49 -35 0 -47 -22 -29 -55 16 -31 7
-55 -22 -55 -16 0 -36 17 -64 54 l-42 53 50 14 c50 13 78 39 78 71 0 28 -14
29 -81 7 -88 -28 -105 -42 -113 -85 -7 -32 -4 -40 25 -70 23 -24 28 -34 18
-37 -8 -2 -27 -8 -44 -13 -19 -6 -45 -6 -72 1 -47 11 -53 16 -57 40 -3 21 -25
35 -43 28 -8 -3 -21 4 -30 16 -35 50 -97 46 -129 -8 -22 -37 -44 -40 -44 -7 0
31 -54 86 -84 86 -12 0 -28 -6 -34 -12 -10 -10 -17 -10 -32 0 -36 22 -58 15
-62 -20 -3 -37 -20 -41 -28 -6 -7 27 -47 37 -56 14 -10 -26 -30 -18 -29 11 0
33 -28 43 -55 18 -28 -25 -60 -11 -60 26 0 23 -4 29 -22 29 -12 0 -29 -7 -38
-15 -10 -9 -25 -13 -34 -9 -18 7 -22 24 -5 24 6 0 9 20 7 52 -3 46 -6 54 -34
70 -28 16 -34 17 -60 3 -16 -8 -38 -28 -49 -45 -20 -30 -39 -38 -50 -20 -9 15
-55 12 -72 -5 -9 -9 -13 -26 -10 -40 5 -29 -5 -31 -53 -7 -43 21 -50 52 -21
102 11 20 18 40 14 44 -14 13 -50 5 -69 -16z m346 -93 c0 -8 -7 -15 -15 -15
-8 0 -15 7 -15 15 0 8 7 15 15 15 8 0 15 -7 15 -15z m510 -196 c0 -6 -4 -7
-10 -4 -5 3 -10 11 -10 16 0 6 5 7 10 4 6 -3 10 -11 10 -16z m205 -29 c3 -5
-1 -10 -9 -10 -9 0 -16 5 -16 10 0 6 4 10 9 10 6 0 13 -4 16 -10z"/>
<path d="M5527 2126 c-3 -8 -14 -12 -24 -10 -29 7 -47 -11 -39 -39 7 -29 37
-40 63 -22 10 6 30 15 46 19 29 7 36 33 15 54 -16 16 -55 15 -61 -2z"/>
<path d="M5240 2050 c-17 -32 -3 -60 30 -60 33 0 47 28 30 60 -14 26 -46 26
-60 0z"/>
<path d="M5117 1914 c-31 -31 -42 -78 -28 -117 8 -21 17 -27 42 -27 31 0 58
22 59 48 0 6 -9 21 -21 33 -19 19 -19 22 -4 33 20 15 16 50 -6 54 -8 1 -27 -9
-42 -24z"/>
<path d="M3828 1892 c-12 -2 -18 -13 -18 -33 0 -16 3 -29 8 -30 28 -3 46 -10
61 -23 15 -14 19 -14 40 0 34 24 25 58 -16 62 -18 2 -33 7 -33 12 0 11 -21 17
-42 12z"/>
<path d="M4991 1721 c-48 -7 -67 -32 -47 -63 12 -21 52 -24 59 -5 4 9 8 9 16
-3 15 -21 61 6 61 36 0 19 -29 48 -42 42 -2 0 -23 -4 -47 -7z"/>
</g>
</svg>
